<svg width="63" height="39" viewBox="0 0 63 39" fill="none" xmlns="http://www.w3.org/2000/svg">
<path d="M51.5248 12.0845L25.9437 36.7601C25.3838 37.3002 24.4487 37.0222 24.2748 36.264L18.8379 12.5593C18.7215 12.0519 19.0139 11.5401 19.51 11.3826L48.0967 2.30744C48.6291 2.13844 49.1966 2.43825 49.3571 2.97322L51.7884 11.0775C51.896 11.436 51.7943 11.8246 51.5248 12.0845Z" stroke="#3A9595" stroke-width="3"/>
<path d="M15.9751 2.24158L18.4764 12.386M18.4764 12.386L24.3038 36.0191C24.4765 36.7198 23.873 37.3671 23.1619 37.2438L2.70342 33.6949C1.94565 33.5634 1.61371 32.6615 2.10549 32.0702L18.4764 12.386Z" stroke="#3A9595" stroke-width="3" stroke-linecap="round" stroke-linejoin="round"/>
<path d="M51.6223 10.3459L58.7485 30.6743L61 33.2656" stroke="#3A9595" stroke-width="3" stroke-linecap="round"/>
</svg>
