<svg xmlns="http://www.w3.org/2000/svg" viewBox="0 0 1989.04 1989.03"><title>Asset 1</title><path d="M994.52,1989c-134.26,0-264.5-26.3-387.11-78.16A998,998,0,0,1,78.16,1381.63C26.3,1259,0,1128.77,0,994.52S26.3,730,78.16,607.4A998,998,0,0,1,607.4,78.16C730,26.3,860.26,0,994.52,0S1259,26.3,1381.63,78.16A998,998,0,0,1,1910.88,607.4C1962.74,730,1989,860.26,1989,994.52s-26.3,264.5-78.16,387.11a998,998,0,0,1-529.25,529.25C1259,1962.74,1128.77,1989,994.52,1989Zm0-1973.25c-132.13,0-260.31,25.88-381,76.91A982.22,982.22,0,0,0,92.69,613.55c-51,120.66-76.91,248.83-76.91,381s25.88,260.31,76.91,381a982.22,982.22,0,0,0,520.86,520.86c120.66,51,248.83,76.91,381,76.91s260.31-25.88,381-76.91a982.22,982.22,0,0,0,520.86-520.86c51-120.66,76.91-248.83,76.91-381s-25.88-260.31-76.91-381A982.22,982.22,0,0,0,1375.48,92.69C1254.82,41.66,1126.65,15.78,994.52,15.78Z"/><path d="M1016.16,1101.54c-42.27-39.07-115.71-33.83-144.45-30.68-73.08,8-119.74,32.69-182.58,33.43-52.21.61-83.48-50.08-76.24-115.64,6.74-61.05,51.07-183.15,56.55-227.33,4.3-34.63-7.49-65.91-42.12-65.91s-70.11,31.83-90.44,72c0,0,11-73.65-42.87-73.65s-105.38,80.55-105.38,80.55,1.32-69.86-86-69.86c-83.18,0-144.51,73.59-144.51,123.78,0,27.75,13.1,56.33,48.65,56.33,28.77,0,55.31-18.62,62.09-52.11,2.64-13.07-.15-26.28-5.7-27.19s-6.56,7.33-21.05,7.33c-33.71,0-8-73.55,50.18-73.55,63,0,49,85.54,2.24,171.28s-53.76,105.67-56,126c-2.59,24,34.53,57,48.82,59.76s17-9.34,35.73-72.55,91.79-275.36,135.21-275.36-42.72,187.62-47.51,237.59c-2,21.32,7.12,28.41,20.08,37.7,16.69,12,37.09,13.7,40.62,2.52,9.16-29,38-137.19,56.61-196.25,11-34.85,44.52-90,66-90s5.5,35.32-15.39,101.28-61.36,181.08-27.83,243.19,93.85,60.49,154.9,53.85c56.75-6.17,111.22-26.69,194.67-26.43,63.42.2,99.91,20.5,118.14,33.05,4.83,3.32,8.13,7.74,9.34,8.24C1032.33,1154.79,1050.84,1133.6,1016.16,1101.54Z"/><path d="M1374.88,1062c-11.94,11.69-38,32.35-94,32.35-73.73,0-123.38-65.1-115.7-141.44,5.66-56.26,25.29-121.77,40.48-170.22,44.9,12.28,95.24,29.31,141.86,29.31,72.92,0,114.94-48.54,120.44-55.13s21.18-30.28,5.09-31.26-39.09,37.21-129.67,37.21c-69.73,0-101.68-7.48-126.81-14.9,3.45-11.23,6.06-20.29,7.32-26.46,1.35-6.62-7.33-23.85-34.44-29.72s-27.48,8.79-34.08,27.48c-.88,2.49-2.54,7.56-4.75,14.63-5.57-.35-11.61-.54-18.26-.54-56.5,0-84.46,30.63-93.59,44.62-10.71,16.41-7.86,29.84,2.2,22,21.82-17,45.56-29.56,95.57-29.56,1,0,2.11,0,3.18,0-12.61,43.91-29.13,107.25-36.83,158.82-11.39,35.5-30.6,82-53,82-33.34,0-20.89-40.31-12.09-71.08s21.45-69.62,12.29-90.5-24.88-22.33-43.6-20.89c-28.58,2.2-43.07-1.1-43.07-1.1,0-4.76,27.11-60.09-36.72-70.15-32.86-5.18-46.5,46.32-21.17,78.58,7.8,9.93,15.84,16.78,27.3,20.71-5.51,48.63-34.06,157.58-64.31,157.58-17.22,0-34.81-25.49-14.66-98.24,17.23-62.2,35.91-89.2-.73-98-25.91-6.22-31.47-.61-43.57,42.54C804.4,836.26,790.18,820,766.72,820c-53.86,0-106.47,65.23-106.47,154.28,0,70.35,43.85,73.77,54.37,73.77,25.32,0,53-26.18,72.38-65.8,4.18,46.09,32.79,65,60.72,65,39.09,0,66.21-20.65,88.56-100.76,12.74-45.65,19.06-71.48,22.2-85.77a247.78,247.78,0,0,0,33.13-1.93s-27.11,98.57-26.38,136.31,31.15,49.1,55.7,49.1c22.75,0,50.84-1.58,79.33-45.54,10.76,69.4,73.22,133.48,157.85,133.48,75,0,122.39-32.49,136.74-55.51C1401.17,1066.49,1383.67,1053.36,1374.88,1062ZM782.79,899.73c-5.77,43.45-30.46,100.5-48.74,100.38-14.6-.1-14.08-32.63-7-64.06,9-40,29-80.92,46.19-80.92C784.95,855.12,785.47,879.6,782.79,899.73Z"/><path d="M1790.62,948.65c-30.11,0-57.63,26.91-57.63,58,0,9.77,9.1,14.14,16.12,8.47,6.35-5.13,14.66-9.44,25.49-9.44,27,0,36.07,20.43,36.07,39.49,0,28.09-27.85,57.65-55.94,57.65-31.51,0-45.85-27.74-49.59-58.79-3.42-28.42.24-65.06,22.15-153,22-88.34,51.87-159.16,56.14-171.3,5.68-16.12-4.21-23.08-20.15-27.66-24.83-7.14-38-4.85-50.85,28.5s-61.64,174.5-73.1,279.65c0,.14,0,.28,0,.42-8,10-17.35,16.11-28.15,16.11-37.41,0-25.93-91.6,7.78-171,6.11-14.4,1.64-26.06-15.15-28.82-24.44-4-31.77.09-43,36-6.57-20.15-18.82-33.43-37.12-33.43-48.42,0-85.69,50.45-101.23,103.43-7.06,10.69-18,26.34-34,47-17.8,22.93-47.82,47.15-69.44,46.5-18.75-.56-41.17-10.94-41.17-45.66,0-.81,0-1.61,0-2.41a41.54,41.54,0,0,0,19.36,5c49.83,0,74.13-43.45,82.56-70,9.57-30.07,2.32-76.69-47.63-76.69-50.44,0-117.66,61.68-117.66,140.78,0,34.1,15.64,84.49,92.33,80.26,45.45,0,90.58-51.45,107.76-75.76-.87,41.83,15.23,75.51,52,75.51,29.27,0,52.55-17.79,69.27-43.42,7,30.82,28.51,42.25,56.36,42.25,15.75,0,31.62-4,46.53-17.07,3.59,56.14,35.35,108.52,95.68,108.52,87.54,0,119.27-75.91,119.27-121C1853.64,969.32,1824.1,948.65,1790.62,948.65Zm-456.86-98.08c29.32,0,22.52,62-53.23,84.71C1289.1,881.89,1315.81,850.57,1333.76,850.57ZM1491,1012c-30,0,2.56-161.59,38.47-161.59C1562.48,850.41,1524,1012,1491,1012Z"/><path d="M1112.73,1222.13s15.61,5.35,10.77,22.24l-8.67,30.3-.85,3-.9,3.14-.88,3.08-1,3.43-1.12,3.9-.22.76-1.12,3.9-1,3.43-.88,3.08-.9,3.14-2.93,10.24-1.53-7.28h0l-.38-1.8-.25-1.2-5.84-27.8-.25-1.2-6.75-32.1c-3.55-16.89,9.46-22.24,9.46-22.24h-52.34a1.48,1.48,0,0,0,.45.17c8.06,2,12.33,10.88,10.1,21.86s-21.87,76.92-21.87,76.92l-5-23.62-.35-1.68-1.77-8.4-.35-1.68-2.32-11-6.37-30.3c-3.55-16.89,9.46-22.24,9.46-22.24H974.87s15.26,5.35,18.81,22.24l8.69,41.32.35,1.68,1.77,8.4.35,1.68,2.32,11,6.37,30.3c3.55,16.89-15.46,22.24-15.46,22.24h58.34s-.4-.14-1.08-.45c-10.91-5-15.48-16.09-12.42-26.88l22.89-80.85,4.59,21.83,1.18,5.6.16.75,2.53,12,.77,3.68,1.63,7.77.32,1.53c3.16,15,6.54,28.13,6.88,32.74C1085,1355,1070,1361,1070,1361h58.74a31.57,31.57,0,0,1-13.21-8.8c-3.85-4.49-6.19-10.58-5-16.37l0-.07c.88-4.21,3.87-14.7,7.53-27.3h.14c1.94-6.78,4-14.17,6.11-21.47,1.21-4.16,2.41-8.31,3.56-12.33h-.06c4-14,7.41-26,8.73-30.3,4.63-14.92,25.64-21.57,28.5-22.24h-52.34Z"/><path d="M720.61,1348c-11.35,0-17.56.48-17.89-6.45v-97.19c0-16,13.8-22.24,13.8-22.24H664.37a23.66,23.66,0,0,1,14.14,22.24V1336a27,27,0,0,1-3.22,12.29c-5.11,9.61-10.91,13.38-10.91,13.38h92.15v-39.09S746.14,1348,720.61,1348Z"/><path d="M608.74,1338.13c-15.77,0-38.05-18.2-38.05-58.19,0-27.59,10.74-40.17,23.69-42.89,11.17-2.35,24.37,7.73,30.88,20.74.09.19,11.15-6.92,9.95-24.21-.56-8.07-7-16.24-30.41-16.24-26.19,0-58.75,26.35-58.75,77.05,0,51.06,27.92,68.23,51.29,68.23,20.54,0,33.18-11.45,37.59-25.53,3-9.63.86-14.59.86-14.59S625.64,1338.13,608.74,1338.13Z"/><path d="M349,1338.13c-15.77,0-38.05-18.2-38.05-58.19,0-27.59,10.74-40.17,23.69-42.89,11.17-2.35,24.37,7.73,30.88,20.74.09.19,11.15-6.92,9.95-24.21-.56-8.07-7-16.24-30.41-16.24-26.19,0-58.75,26.35-58.75,77.05,0,51.06,27.92,68.23,51.29,68.23,20.54,0,33.18-11.45,37.59-25.53,3-9.63.86-14.59.86-14.59S365.85,1338.13,349,1338.13Z"/><path d="M792.26,1244.37V1336a27,27,0,0,1-3.22,12.29c-5.11,9.61-10.91,13.38-10.91,13.38h92.15v-36.09S859.89,1351,834.36,1351c-11.35,0-17.56.48-17.89-6.45,0-8.62,0-28.07,0-48.1h11.66c21.3,0,27.4,15.44,27.4,15.44v-41.63s-6.1,15.44-27.4,15.44H816.54c0-25.16.11-48.34.2-48.92,1.74-5.29,11.86-4,21.63-4,20.28,0,31.91,23.47,31.91,23.47v-34.09H778.12A23.66,23.66,0,0,1,792.26,1244.37Z"/><path d="M1230.84,1220.61c-31.05,0-56.23,31.91-56.23,71.27s25.17,71.27,56.23,71.27,56.23-31.91,56.23-71.27S1261.9,1220.61,1230.84,1220.61Zm3.94,125.56c-15.8,0-32.52-24.73-34.29-52.78-1.85-29.28,3.64-57.87,19.44-57.87s32.2,27,35,56.37C1257.14,1315.48,1250.58,1346.17,1234.78,1346.17Z"/><path d="M488.3,1246.65c-2.08,8.82-10.83,23.51-16.66,32.65-12.42-51.31-56.77-90.35-89.21-91.77-32.63-1.44-40.52,11.08-40.52,11.08,24.93-4.66,60,9.17,81.93,43.8,21.32,33.62,26.84,70,26.84,86.62,0,20.39-15.17,32.2-15.17,32.2h55.06c-12.25-4.51-15.91-19.8-15.91-32.2,0-3,0-5.05,0-6.44l0,.06c.52-20.18,12-48.92,24.91-70.8a160,160,0,0,1,22.64-29.35H482.92C485.79,1226.35,491.49,1233.14,488.3,1246.65Z"/><path d="M1404.38,1317.44c-2.71-11.19-9.54-18.94-18-22.83,14.7-7.19,24.37-19,24.37-35.59,0-25.34-27.83-36.88-42.28-36.88h-55.73a23.66,23.66,0,0,1,14.14,22.24v94.4a23.66,23.66,0,0,1-14.14,22.24H1365a23.66,23.66,0,0,1-14.14-22.24v-35.44c9.47-1.26,21-.65,25,8.47,9.62,21.65-2.11,51.26,29.85,50.55,15.27-.34,20.41-9.45,20.41-9.45S1413.11,1353.48,1404.38,1317.44ZM1383.82,1261c0,15.89-9.12,28.19-32.91,28.43v-45a27.52,27.52,0,0,1,.4-4.7C1368.09,1239.66,1383.82,1240.15,1383.82,1261Z"/><path d="M1538.69,1317.44c-4.72-19.51-11-40.58-27.71-36.92a26.93,26.93,0,0,0-8.58,3.8c14.59-24.63,54.24-70.53,98.56-81.83,22.34-5.7,32.85-3,32.85-3s-7.69-15.08-42.79-12.46c-40,3-81.26,59-104.1,98.09v-40.74a23.66,23.66,0,0,1,14.14-22.24h-52.34a23.66,23.66,0,0,1,14.14,22.24v94.4a23.66,23.66,0,0,1-14.14,22.24H1501a23.66,23.66,0,0,1-14.14-22.24v-27.3a25.57,25.57,0,0,1,1.76-9.91,9.57,9.57,0,0,1,6.47-5.77c3.23-.77,6.19.35,8.21,4.89,9.62,21.65,4.79,62.38,36.74,61.68,15.27-.34,20.41-9.45,20.41-9.45S1547.42,1353.48,1538.69,1317.44Z"/><path d="M1636.06,1273.56c-11.64-6.57-29.18-11.19-28.25-28.63.84-15.86,32.25-11.67,43,10.57,0,0,4.91-21.13,7.73-36.76,0,0-3.1,3-10.56,3.1-8.31.16-16.34-1.1-25.35-1.41-16.6-.56-36.64,11.83-36.73,42.54-.13,41.92,56.41,34.42,56.31,61.35-.05,14.36-9.48,19.3-16,19.3-13.17,0-23.78-12-22.65-34.79l-28.9,21.12s12.39,32.38,43.08,32.38,51.84-24.5,51.84-45.61S1655.73,1284.66,1636.06,1273.56Z"/><path d="M435.15,462.19,454,480.43l-59.88,72.89-3.43-2.81q1.43-1.94,3.66-5.29a27,27,0,0,0,2.65-4.56,7,7,0,0,0,.38-4.3,6.73,6.73,0,0,0-2.31-3.19L345.8,492.73a7.43,7.43,0,0,0-3.38-1.64,6.47,6.47,0,0,0-4.34,1.2,33,33,0,0,0-4.79,3.57,55.37,55.37,0,0,0-4.27,4l-3.43-2.81,55.81-67.94,16.51,13.56-3.81,4.64q-4.68-1.77-12.19-1.05T371,450.39q-1.77,1.76-4.05,4.34t-5.08,6l-11.34,13.8,27.22,22.36,8.13-9.9a32.33,32.33,0,0,0,5-7.54,12.42,12.42,0,0,0,.84-5.79,15,15,0,0,0-1.83-5.39,24.91,24.91,0,0,0-3.37-4.9l3.81-4.64,26.83,22-3.81,4.64a22.76,22.76,0,0,0-6-2.69,15.05,15.05,0,0,0-5.6-.81,11.88,11.88,0,0,0-6,2.34,37.62,37.62,0,0,0-5.89,6l-8.13,9.9L402.2,517a21.91,21.91,0,0,0,5.32,3.44,5.9,5.9,0,0,0,4.48.05,14.33,14.33,0,0,0,4.79-3.42q2.55-2.57,6.77-7.7L428,504q2.75-3.34,4.43-5.79a54.07,54.07,0,0,0,3.29-5.43,10.82,10.82,0,0,0,1.55-4.69,40.94,40.94,0,0,0-2.12-11.74,55.5,55.5,0,0,0-3.65-9.68Z"/><path d="M559.26,385.83,518.94,420.5,516,417.14a59.29,59.29,0,0,0,7.41-7.65q2.52-3.28,1.38-4.6-.61-.71-3.92-1.74a74.52,74.52,0,0,0-7.86-1.9q-5-.94-11.9-2.18t-13.36-2.16q-.62,10.1-.75,23.69t1,15q1.34,1.56,3.83.7t9-6.1l2.89,3.36-32.18,27.67-2.89-3.36q1.5-1.45,3.73-3.83a21,21,0,0,0,3.29-4.35,27.93,27.93,0,0,0,2.61-7.22,49,49,0,0,0,.74-6.94q.3-7.51,1-19T481,396q-7-1-17.77-2.47t-23-3.2a53.38,53.38,0,0,0-7.71-.7,17.53,17.53,0,0,0-5.8,1.28,25.43,25.43,0,0,0-4.74,2.64q-2.84,1.91-4.44,3.11l-2.89-3.36L454.53,359l2.89,3.36a75.78,75.78,0,0,0-6.71,7q-3.28,3.85-2.22,5.08.77.9,4.23,1.84t7.72,1.73l9.79,1.8q5.38,1,12.78,2,.62-13.14.58-23.25T482,346.62q-1.3-1.52-4.19-.27a43.35,43.35,0,0,0-8.46,5.71l-2.89-3.36,32.12-27.62,2.89,3.36q-1.48,1.35-3.67,3.78a27.15,27.15,0,0,0-3.34,4.4,20,20,0,0,0-2.51,6.6q-.37,2.7-.73,7.56-.65,9.06-1.06,16.88t-.87,18.94q9.49,1.22,21.37,2.94l22.71,3.27a43.66,43.66,0,0,0,7.79.34,29,29,0,0,0,6.21-.77,15.12,15.12,0,0,0,4.63-2.54q2.6-1.95,4.34-3.36Z"/><path d="M613,274.2a22,22,0,0,1,3.47,12.28,27.37,27.37,0,0,1-3.58,12.58,47.3,47.3,0,0,1-8.7,11.37,70.85,70.85,0,0,1-12.31,9.49L581,326.6l14.08,22.87a7.75,7.75,0,0,0,2.8,2.79,6.12,6.12,0,0,0,4.56.16,31.08,31.08,0,0,0,4.76-2q3.3-1.59,5.92-3.13l2.33,3.78L574,376.65l-2.33-3.78q1.57-1.11,4.51-3.29a23.82,23.82,0,0,0,3.9-3.36,6.64,6.64,0,0,0,1.72-3.85,6.87,6.87,0,0,0-1.17-4l-33.54-54.46a9.35,9.35,0,0,0-2.74-2.93q-1.6-1.07-4.58-.26a42.09,42.09,0,0,0-5.75,2.19q-2.73,1.28-4.64,2.31L527,301.48l44.18-27.21q13.5-8.31,25-8.42T613,274.2Zm-12.8,25.63a15.34,15.34,0,0,0-.19-7.18,22.06,22.06,0,0,0-2.28-5.38,25.64,25.64,0,0,0-4.72-5.6,15.39,15.39,0,0,0-6.54-3.53,18.59,18.59,0,0,0-8.66,0,34.29,34.29,0,0,0-10.53,4.58l-9.61,5.92L578.18,322l7-4.28q7.37-4.53,10.87-9.15A20.28,20.28,0,0,0,600.19,299.83Z"/><path d="M745,259.55l8,25.21-81.8,34.57-1.73-4.08q1.72-.86,5-2.57a23.91,23.91,0,0,0,4.37-2.73,6.64,6.64,0,0,0,2.28-3.54,6.86,6.86,0,0,0-.56-4.1l-24.71-58.45a7.48,7.48,0,0,0-2.31-3.09,6.58,6.58,0,0,0-4.38-1,32.69,32.69,0,0,0-5.33.66,37.38,37.38,0,0,0-5.38,1.36l-1.73-4.08L680.93,219l1.73,4.08a47.4,47.4,0,0,0-5.1,2.84q-3.06,1.91-4.37,2.93a5.71,5.71,0,0,0-2.43,3.81,7.88,7.88,0,0,0,.59,4l23.17,54.83a30.34,30.34,0,0,0,3,5.7,5.51,5.51,0,0,0,3.62,2.3,13.12,13.12,0,0,0,5.62-.78q3.49-1.1,9.54-3.66,2.73-1.15,5.63-2.52t5.41-2.83a38.28,38.28,0,0,0,4.36-3,8.79,8.79,0,0,0,2.56-2.88,75.24,75.24,0,0,0,5.54-22.07Z"/><path d="M842.3,180.54a43.61,43.61,0,0,1,14.93,11.57,42.88,42.88,0,0,1,8.65,17.6,42.15,42.15,0,0,1,.33,19.65,43.09,43.09,0,0,1-8.2,17.1,54.49,54.49,0,0,1-14.62,13.07,70.14,70.14,0,0,1-41.72,9.92,52.42,52.42,0,0,1-19-5.3,43.33,43.33,0,0,1-14.49-11.62,42.47,42.47,0,0,1-8.38-17,41.76,41.76,0,0,1-.35-19.75,45.24,45.24,0,0,1,8.13-17.05,53.9,53.9,0,0,1,14.79-13.24,69.39,69.39,0,0,1,41-9.9A53.22,53.22,0,0,1,842.3,180.54Zm3.25,63.88a36.8,36.8,0,0,0,3.3-14,63.31,63.31,0,0,0-8-31.81,37,37,0,0,0-9.57-11,30,30,0,0,0-12.69-5.43,37,37,0,0,0-15.49.71q-9.34,2.27-15.06,7.2a30.82,30.82,0,0,0-8.49,11.51,38.36,38.36,0,0,0-2.76,13.91,59.94,59.94,0,0,0,1.75,15.52,58.73,58.73,0,0,0,5.86,15.29,36.55,36.55,0,0,0,9.42,11,29.73,29.73,0,0,0,12.61,5.77,36.55,36.55,0,0,0,16-.7,37,37,0,0,0,14.28-6.69A29,29,0,0,0,845.55,244.41Z"/><path d="M1118.32,225.74l-4.46,25.82-94-8.33.39-4.42q2.4.09,6.43,0a27.05,27.05,0,0,0,5.26-.38,7,7,0,0,0,3.76-2.11,6.72,6.72,0,0,0,1.33-3.71l5.63-63.46a7.45,7.45,0,0,0-.55-3.72,6.47,6.47,0,0,0-3.44-2.91,32.94,32.94,0,0,0-5.66-1.94,55.28,55.28,0,0,0-5.72-1.26l.39-4.42,87.58,7.77L1113.42,184l-6-.53q-1.18-4.87-6-10.66t-9.58-6.71q-2.45-.47-5.87-.9t-7.81-.82l-17.79-1.58-3.11,35.09L1070,199a32.34,32.34,0,0,0,9.05-.11,12.43,12.43,0,0,0,5.25-2.58,15,15,0,0,0,3.42-4.56,24.85,24.85,0,0,0,2.14-5.55l6,.53-3.07,34.59-6-.53a22.72,22.72,0,0,0-1.15-6.47,15.07,15.07,0,0,0-2.48-5.08,11.88,11.88,0,0,0-5.34-3.67,37.6,37.6,0,0,0-8.27-1.49L1056.83,203l-2.35,26.46a21.93,21.93,0,0,0,.16,6.34,5.9,5.9,0,0,0,2.48,3.73,14.32,14.32,0,0,0,5.53,2q3.56.66,10.18,1.25l6.94.62q4.31.38,7.28.39a53.93,53.93,0,0,0,6.34-.35,10.8,10.8,0,0,0,4.74-1.37,41,41,0,0,0,8.5-8.37,55.68,55.68,0,0,0,5.94-8.47Z"/><path d="M1315.68,310.79l-47.29-16.87,1.49-4.18q2.58.86,6.75,1.94a21.88,21.88,0,0,0,5.9,1,9.75,9.75,0,0,0,4.35-1.33,6.18,6.18,0,0,0,2.38-3.23l21.66-60.71-1.13-.4-61.88,58.1-3.77-1.34-8.87-85-1-.35-17.78,49.83q-2.58,7.24-2.75,11.42a10.34,10.34,0,0,0,1.65,6.69q1.22,1.83,6,4.8a55,55,0,0,0,6.37,3.6l-1.49,4.18-43.22-15.42,1.49-4.18A74.44,74.44,0,0,0,1192,261a16.94,16.94,0,0,0,6.46.12,9,9,0,0,0,5.42-3.77q2.2-3.06,5.05-11.06l15.24-42.71a14.89,14.89,0,0,0,1-6.46,10.32,10.32,0,0,0-1.88-5,17.65,17.65,0,0,0-4.89-4.4,38.68,38.68,0,0,0-6.4-3.28l1.49-4.18,36.49,13,8.3,73.6,44.87-43.08a46.57,46.57,0,0,0,4.6-5.16,24.23,24.23,0,0,0,2.6-3.82l34.9,12.45-1.49,4.18a52.14,52.14,0,0,0-5.58-1.39,46.44,46.44,0,0,0-5.1-.83,5.63,5.63,0,0,0-4.31,1.12,7.78,7.78,0,0,0-2.19,3.27l-21.47,60.18a6.69,6.69,0,0,0-.33,3.79,7.72,7.72,0,0,0,2.59,3.71,22.6,22.6,0,0,0,4.44,2.81,54.3,54.3,0,0,0,5.31,2.52Z"/><path d="M1452.72,300.58a43.61,43.61,0,0,1,2.59,18.71,42.87,42.87,0,0,1-6.11,18.63,42.16,42.16,0,0,1-13.5,14.29,43.09,43.09,0,0,1-17.82,6.5,54.48,54.48,0,0,1-19.59-.87,70.15,70.15,0,0,1-36.77-22.06,52.39,52.39,0,0,1-9.92-17.1,43.32,43.32,0,0,1-2.24-18.43,42.49,42.49,0,0,1,5.9-18,41.77,41.77,0,0,1,13.55-14.37,45.25,45.25,0,0,1,17.73-6.51,53.87,53.87,0,0,1,19.83.86,69.4,69.4,0,0,1,36.23,21.56A53.23,53.23,0,0,1,1452.72,300.58Zm-42.31,48a36.78,36.78,0,0,0,12.18-7.74,63.29,63.29,0,0,0,16.52-28.33,36.94,36.94,0,0,0,.87-14.58,30,30,0,0,0-5.28-12.75,37,37,0,0,0-11.57-10.31q-8.27-4.9-15.8-5.38a30.83,30.83,0,0,0-14.12,2.3,38.36,38.36,0,0,0-11.7,8,60,60,0,0,0-9.59,12.32,58.75,58.75,0,0,0-6.49,15,36.59,36.59,0,0,0-.91,14.42,29.74,29.74,0,0,0,5,12.94,36.58,36.58,0,0,0,11.92,10.67,37,37,0,0,0,14.89,5.2A28.94,28.94,0,0,0,1410.41,348.55Z"/><path d="M1622.41,531.08l-21.35,15.18-60.82-72.11,3.39-2.86q1.64,1.76,4.54,4.55a27,27,0,0,0,4,3.44,7,7,0,0,0,4.16,1.15,6.72,6.72,0,0,0,3.56-1.69l48.7-41.08a7.42,7.42,0,0,0,2.22-3,6.48,6.48,0,0,0-.39-4.49,33.07,33.07,0,0,0-2.65-5.36,55.38,55.38,0,0,0-3.17-4.92L1608,417l56.69,67.21L1648.35,498l-3.87-4.59q2.59-4.28,3.24-11.8t-2.07-11.51q-1.41-2.06-3.54-4.77t-5-6.08l-11.51-13.65-26.93,22.71,8.26,9.79a32.35,32.35,0,0,0,6.5,6.3,12.45,12.45,0,0,0,5.54,1.87,15.06,15.06,0,0,0,5.64-.83,24.9,24.9,0,0,0,5.43-2.43l3.87,4.59L1607.41,510l-3.87-4.59a22.78,22.78,0,0,0,3.74-5.4,15,15,0,0,0,1.82-5.35,11.88,11.88,0,0,0-1.21-6.37,37.59,37.59,0,0,0-4.82-6.88l-8.26-9.79-20.31,17.13a22,22,0,0,0-4.35,4.61,5.9,5.9,0,0,0-.86,4.39,14.32,14.32,0,0,0,2.5,5.33q2.06,3,6.35,8.06l4.49,5.33q2.79,3.31,4.89,5.41a53.92,53.92,0,0,0,4.75,4.22,10.79,10.79,0,0,0,4.33,2.37,40.94,40.94,0,0,0,11.93,0,55.53,55.53,0,0,0,10.18-1.83Z"/><path d="M937.43,206.72l-11.61.84,2,28a8,8,0,0,0,1.16,3.77q1,1.59,3.94,2.25a30.73,30.73,0,0,0,5.09.45q3.62.12,6.1,0l.32,4.42-47.92,3.46-.32-4.42q1.91-.26,5.52-.84a23.8,23.8,0,0,0,5-1.18,6.64,6.64,0,0,0,3.3-2.62,6.87,6.87,0,0,0,.79-4.07l-4.62-63.92a9,9,0,0,0-1.08-3.81q-.92-1.62-3.94-2.28a43,43,0,0,0-5.27-.65q-3.23-.24-5.47-.2l-.32-4.42,52.31-3.78a75.38,75.38,0,0,1,13.58.18,42.63,42.63,0,0,1,11.69,2.88,21.77,21.77,0,0,1,8.38,5.94,16,16,0,0,1,3.66,9.47,19.72,19.72,0,0,1-1.34,9.18,19.24,19.24,0,0,1-5.42,7.22,36.7,36.7,0,0,1-8.29,5.26A77.7,77.7,0,0,1,953.84,202C945.68,204.21,942.3,206.65,937.43,206.72Zm22.71-27.59a15.43,15.43,0,0,0-6.83-12.29q-6.25-4.27-17-3.49l-13.58,1,2.74,37.88,10.46-.76q11-.8,18-6.83A17.75,17.75,0,0,0,960.14,179.12Z"/><path d="M931.88,205.71c7.88,0,16.42,4.5,23,17.83s12.2,20.37,25.15,20.74,21.3-11.64,19.62-19.05c0,0-4.2,6-13.42,4.22-14.83-2.82-17.93-30.31-32.85-29.38a30.05,30.05,0,0,0-8.26,2.06S924,205.71,931.88,205.71Z"/><path d="M1505.15,388l-8.83-7.58L1478,401.7a8,8,0,0,0-1.83,3.49q-.41,1.83,1.21,4.37a30.73,30.73,0,0,0,3.3,3.9q2.49,2.63,4.33,4.3l-2.89,3.36-36.45-31.31,2.89-3.36q1.54,1.16,4.51,3.29a23.8,23.8,0,0,0,4.39,2.7,6.64,6.64,0,0,0,4.19.47,6.87,6.87,0,0,0,3.42-2.33L1506.82,342a9,9,0,0,0,1.92-3.46q.49-1.8-1.19-4.4a43,43,0,0,0-3.28-4.17q-2.13-2.44-3.74-4l2.89-3.36,39.79,34.17a75.38,75.38,0,0,1,9.51,9.69,42.63,42.63,0,0,1,6.26,10.28,21.77,21.77,0,0,1,1.76,10.12,16,16,0,0,1-4.08,9.3,19.72,19.72,0,0,1-7.42,5.57,19.24,19.24,0,0,1-8.93,1.3,36.7,36.7,0,0,1-9.59-2.11,77.7,77.7,0,0,1-10.62-4.72C1512.77,392,1508.65,391.34,1505.15,388Zm35.56-3.59a15.43,15.43,0,0,0,3.81-13.54q-1.43-7.43-9.63-14.48l-10.33-8.87-24.74,28.81,8,6.84q8.38,7.2,17.57,7.81A17.75,17.75,0,0,0,1540.71,384.37Z"/><path d="M1501.92,383.33c5.59,5.55,8.48,14.77,3.76,28.85s-5.69,23,3.24,32.44,23.32,6.75,27.34.3c0,0-7.19,1.28-12.5-6.46-8.54-12.45,8.63-34.14-2.62-44a30.05,30.05,0,0,0-7.32-4.35S1496.32,377.78,1501.92,383.33Z"/><path d="M549.56,1645.13a19,19,0,0,1-4.26,16.48q-7.38,9.13-20.83,8.06t-26.28-11.44a64.46,64.46,0,0,1-10.67-11,68.18,68.18,0,0,1-7.41-11.73l-5.54,1.38-5-4,18.21-24.31,5,4.08a58,58,0,0,0-2.74,10.84,36,36,0,0,0,.19,11,32.37,32.37,0,0,0,3.88,10.68,35.21,35.21,0,0,0,8.68,9.83,36.85,36.85,0,0,0,8.21,5.19,18.17,18.17,0,0,0,7.21,1.72,13,13,0,0,0,6-1.38,15.61,15.61,0,0,0,5-4.21,15.17,15.17,0,0,0,3.24-10.13q-.1-6-4.52-12.62-3-4.53-7-10.28t-6.7-10.18q-5.35-8.66-6.06-16.26t4.83-14.44a17.89,17.89,0,0,1,8-5.67,26.22,26.22,0,0,1,10.76-1.34,37.08,37.08,0,0,1,11.73,2.94,47,47,0,0,1,11.43,6.87,48.59,48.59,0,0,1,9.75,10.29,76.05,76.05,0,0,1,6.06,10.52l5.22-1.24,5,4-18,23.28-5-4.08a95.85,95.85,0,0,0,3-10,32.7,32.7,0,0,0,.81-10.11,25.38,25.38,0,0,0-2.91-9.78,30.54,30.54,0,0,0-8.11-9.33,21.82,21.82,0,0,0-12.48-5.19q-6.57-.41-10,3.87a13.6,13.6,0,0,0-3.31,9.57,25.06,25.06,0,0,0,3.88,11.13q3.17,5.37,6.56,10.16t6.36,9.52a92.08,92.08,0,0,1,4.88,8.68A34.74,34.74,0,0,1,549.56,1645.13Z"/><path d="M603.27,1728.28l-43.58-26.82,2.33-3.78,5.52,3a29.09,29.09,0,0,0,5.3,2.38,8,8,0,0,0,4.44.13,5.82,5.82,0,0,0,3.07-2.69L614,1645.77a7,7,0,0,0,1.17-3.57q0-1.71-2.25-4.28a51.24,51.24,0,0,0-4.41-4.37,50.64,50.64,0,0,0-4.67-3.79l2.32-3.78,43.58,26.82-2.32,3.78q-2.15-1.25-5.29-2.71a50.88,50.88,0,0,0-5.66-2.27q-3-1-4.75-.07a7,7,0,0,0-2.85,2.65l-33.62,54.63a6,6,0,0,0-.93,3.72,7.79,7.79,0,0,0,2.05,4.23,46.3,46.3,0,0,0,4.1,3.81,50.24,50.24,0,0,0,5.15,3.94Z"/><path d="M773.84,1715.06a45.24,45.24,0,0,0-6.72-1.8,29.14,29.14,0,0,0-6.87-.85q-3.27.3-5.94,4a52.31,52.31,0,0,0-5.36,9.93l-25.63,59.62-6.4-2.75-34.63-93.82-18.05,42a43.14,43.14,0,0,0-3.52,11.34,10.41,10.41,0,0,0,1.18,6.9q1.15,2,6,5.36a58.2,58.2,0,0,0,6.5,4.15l-1.75,4.07-42.82-18.4,1.75-4.07a55.89,55.89,0,0,0,7.18,1.76q5.14,1,6.66.72a8.94,8.94,0,0,0,5.64-3.39q2.37-2.89,5.8-10.87l17.24-40.11a14,14,0,0,0,1.09-5.79,10.68,10.68,0,0,0-1.41-5.43,26.49,26.49,0,0,0-5.78-6.33,34.4,34.4,0,0,0-6.69-4.61l1.75-4.07,29.83,12.82,32,87.3L741.5,1724a42.5,42.5,0,0,0,3.52-11.44q.46-4.32-1.2-6.53a31.5,31.5,0,0,0-5.82-5,50,50,0,0,0-6.61-4.2l1.75-4.07L775.59,1711Z"/><path d="M815.27,1813.68a60.89,60.89,0,0,1-18.19-7.64,52,52,0,0,1-13.93-12.65,43.74,43.74,0,0,1-7.65-16.62,42.05,42.05,0,0,1,.39-19.56,43.93,43.93,0,0,1,8.6-17.75,44.83,44.83,0,0,1,14.72-11.76,52.23,52.23,0,0,1,19-5.23,65.62,65.62,0,0,1,47.3,14.39l4.19-3.35,6.22,1.51-6.77,30.88-6.38-1.55a62.85,62.85,0,0,0-1.36-10.65,36.57,36.57,0,0,0-3.67-10.31,27.57,27.57,0,0,0-7.29-8.62,28.84,28.84,0,0,0-11.17-5.19,38.3,38.3,0,0,0-14.66-.8,31.76,31.76,0,0,0-13.1,5,35.68,35.68,0,0,0-10.12,10.79,54.3,54.3,0,0,0-6.69,16.32,42.69,42.69,0,0,0-1,15.8,37.7,37.7,0,0,0,4.71,14,36.72,36.72,0,0,0,9.81,10.94,39.29,39.29,0,0,0,14.49,6.61,42.29,42.29,0,0,0,12,1.27,35.1,35.1,0,0,0,10.17-1.87,37.12,37.12,0,0,0,8.31-4.41,32.44,32.44,0,0,0,6.62-6.23l5.3,3.6q-9.8,11.18-22.18,14T815.27,1813.68Z"/><path d="M984.78,1808.46l-4.35,25.83-94-7.94.37-4.42q2.41.08,6.43,0a27,27,0,0,0,5.26-.4,7,7,0,0,0,3.76-2.13,6.73,6.73,0,0,0,1.32-3.71l5.36-63.48a7.43,7.43,0,0,0-.57-3.72,6.47,6.47,0,0,0-3.45-2.89,33,33,0,0,0-5.66-1.92,55.12,55.12,0,0,0-5.72-1.24l.37-4.42,87.61,7.4-1.8,21.29-6-.5q-1.2-4.86-6.05-10.63t-9.6-6.67q-2.45-.46-5.87-.87t-7.81-.78l-17.79-1.5-3,35.1,12.77,1.08a32.35,32.35,0,0,0,9.05-.14,12.44,12.44,0,0,0,5.24-2.6,15.05,15.05,0,0,0,3.4-4.57,24.89,24.89,0,0,0,2.12-5.56l6,.5-2.92,34.61-6-.51a22.76,22.76,0,0,0-1.18-6.46,15.05,15.05,0,0,0-2.5-5.07,11.88,11.88,0,0,0-5.36-3.65A37.6,37.6,0,0,0,936,1787L923.19,1786,921,1812.43a21.87,21.87,0,0,0,.19,6.34,5.9,5.9,0,0,0,2.5,3.72,14.33,14.33,0,0,0,5.54,2q3.56.64,10.19,1.2l6.94.59q4.31.36,7.28.36a53.76,53.76,0,0,0,6.34-.37,10.78,10.78,0,0,0,4.74-1.39,40.94,40.94,0,0,0,8.47-8.41,55.46,55.46,0,0,0,5.9-8.5Z"/><path d="M1161.78,1811.94l-80.5,12.33-1.62-10.58a49.8,49.8,0,0,1,5.62-6.36q3.67-3.6,8.8-8,3.12-2.61,7.55-5.82t10.08-7.08a85.22,85.22,0,0,0,9.56-7.32A32.18,32.18,0,0,0,1127,1772a18.79,18.79,0,0,0,2.26-6.47,34.21,34.21,0,0,0-.37-10.42q-1.48-9.65-7.93-13.29t-15.47-2.26a28.79,28.79,0,0,0-10.26,3.59,16.4,16.4,0,0,0-6.64,6.6q1,2.38,2.4,5.65a26.22,26.22,0,0,1,1.92,6.51,6.78,6.78,0,0,1-1.91,5.63q-2.36,2.7-7.68,3.51a8.38,8.38,0,0,1-7-1.65,10.64,10.64,0,0,1-3.42-6.8,16.17,16.17,0,0,1,1.29-8.79,28.27,28.27,0,0,1,6.2-8.9,39.66,39.66,0,0,1,10.82-7.43,51,51,0,0,1,14.7-4.47q17.61-2.7,29,2.78t13.25,17.3a27.86,27.86,0,0,1-.27,10.56,21.29,21.29,0,0,1-4.72,9.1,45.6,45.6,0,0,1-9.62,8.39q-5.67,3.76-17.44,10.7-7,4.16-13,8.43a74.35,74.35,0,0,0-9.59,8l66.07-10.12Z"/><path d="M1260.29,1706.74a38.92,38.92,0,0,1,12.33,10.78,52.5,52.5,0,0,1,7.94,15.21,50.57,50.57,0,0,1,2.79,19.14,38.66,38.66,0,0,1-4.42,16.18,39.86,39.86,0,0,1-11,12.72,56.49,56.49,0,0,1-16.74,8.61,55.57,55.57,0,0,1-20,3.11,37.42,37.42,0,0,1-16.44-4.26,39.31,39.31,0,0,1-12.63-10.85,53.63,53.63,0,0,1-8.24-15.85,51.55,51.55,0,0,1-2.81-17.12,40.57,40.57,0,0,1,3.66-16.13,38.32,38.32,0,0,1,10.57-13.66,53.61,53.61,0,0,1,17.94-9.67q11.3-3.76,20.52-3A40,40,0,0,1,1260.29,1706.74Zm2,32q-5.87-17.67-15.83-25.16T1225,1710a22.49,22.49,0,0,0-15.24,15.87q-3.53,12,2.34,29.64,5.58,16.78,15.44,24.83t22,4q12.12-4,15.25-16.4T1262.33,1738.79Z"/><path d="M1394.1,1723.41l-52,27.06-2.56-4.92q2.24-1.34,6.9-4.34a54.76,54.76,0,0,0,6.26-4.45,8,8,0,0,0,2.49-4.16,8.23,8.23,0,0,0-1.17-5.35l-25.36-48.7-19.19,10-3-5.83,4.24-2.21a43,43,0,0,0,13.47-10.54q5.15-6.21,6.34-10.88l6.4-3.33q2.12,4.63,5,10.79t5.4,10.94l21.43,41.14a9,9,0,0,0,3.45,3.71,7.88,7.88,0,0,0,4.89,1,36.79,36.79,0,0,0,7.27-2q4.87-1.74,7.15-2.84Z"/><path d="M1458.55,1628.06a52.07,52.07,0,0,1,8.29,18,47.64,47.64,0,0,1,.75,19.09,55.59,55.59,0,0,1-6.77,18.6,79.68,79.68,0,0,1-15.12,18.26l-4.06-3.68,5.3-5.21q9.24-11.51,10.92-23t-3.9-23.31a40.11,40.11,0,0,1-5.29,11.21,54,54,0,0,1-10.77,10.59,26.33,26.33,0,0,1-19.63,4.68,25.07,25.07,0,0,1-17.48-10.89,27,27,0,0,1-4.47-22.23c1.76-8.14,8.32-16.82,15.68-22q12-8.52,24.61-5.88T1458.55,1628.06Zm-11.82,7.54q-8-11.35-16.72-14.85t-15.41,1.28a15.38,15.38,0,0,0-6.82,12.3q-.41,7.76,5.78,16.49,5.57,7.85,13,9.76a16.36,16.36,0,0,0,14.12-2.87,25.52,25.52,0,0,0,6.72-6.85,23.25,23.25,0,0,0,3.37-9.06,9.14,9.14,0,0,1-.47-.83,15.65,15.65,0,0,0-1.09-1.71c-.32-.45-.69-1-1.12-1.69S1447.19,1636.24,1446.73,1635.6Z"/></svg>